<svg width="123" height="125" viewBox="0 0 123 125" fill="none" xmlns="http://www.w3.org/2000/svg">
<path d="M99.8094 48.4063L75.2094 23.4063L77.3876 21.1928C78.4331 20.1303 79.7006 19.6042 81.1903 19.6147C82.6834 19.6251 83.9527 20.1615 84.9982 21.224L102.013 38.6199C103.062 39.6824 103.587 40.9497 103.587 42.4219C103.587 43.8942 103.064 45.1615 102.018 46.224L99.8094 48.4063ZM45.2179 104.047C44.2408 105.04 43.0278 105.571 41.5792 105.641C40.1271 105.707 38.9125 105.241 37.9353 104.245L20.6179 86.7449C19.5724 85.6858 19.0497 84.4028 19.0497 82.8959C19.0497 81.3924 19.5724 80.1077 20.6179 79.0417L23.1599 76.4636L47.7599 101.464L45.2179 104.047ZM62.2176 103.708C61.3907 104.549 60.4255 104.969 59.3219 104.969C58.2183 104.969 57.2531 104.549 56.4263 103.708L20.9511 67.6563C20.1242 66.816 19.7108 65.8351 19.7108 64.7136C19.7108 63.5921 20.1242 62.6112 20.9511 61.7709L28.5514 54.0157C29.3783 53.1754 30.3486 52.7553 31.4624 52.7553C32.5763 52.7553 33.5483 53.1754 34.3786 54.0157L43.9264 63.823L62.8326 44.6094L53.1822 34.9063C52.3553 34.066 51.9419 33.0851 51.9419 31.9636C51.9419 30.8421 52.3553 29.8594 53.1822 29.0157L60.7826 21.1615C61.6094 20.3213 62.5968 19.9011 63.7448 19.9011C64.8894 19.9011 65.8751 20.3213 66.7019 21.1615L102.177 57.2136C103.004 58.0539 103.417 59.0574 103.417 60.224C103.417 61.3872 103.004 62.389 102.177 63.2292L94.4487 70.9532C93.6219 71.7935 92.6549 72.2136 91.5479 72.2136C90.4444 72.2136 89.4791 71.7935 88.6523 70.9532L79.1044 61.1459L60.1983 80.3594L69.8487 90.0626C70.6755 90.9063 71.0889 91.8942 71.0889 93.0261C71.0889 94.1581 70.6755 95.1442 69.8487 95.9845L62.2176 103.708Z" fill="#435739"/>
</svg>
