<svg width="134" height="110" viewBox="0 0 134 110" fill="none" xmlns="http://www.w3.org/2000/svg">
<path d="M93.9446 78.9684C99.884 75.8049 99.1144 63.6149 92.231 51.7218C89.2782 46.6009 85.6478 42.454 82.0173 39.555C77.6761 42.6423 72.4174 44.3165 67.0114 44.3326C61.5971 44.3212 56.3292 42.6467 51.9812 39.555C48.3508 42.454 44.73 46.6055 41.7675 51.7218C34.8793 63.6103 34.1193 75.8049 40.0733 78.9684C42.726 80.4156 45.5238 79.3302 48.4088 76.6677C47.8687 79.5362 47.5982 82.4454 47.6005 85.3602C47.6005 98.9882 53.1188 110 59.9102 110C64.0053 110 66.0336 105.988 67.0065 99.851C67.9746 105.946 70.0077 110 74.0738 110C80.8362 110 86.3981 98.9835 86.3981 85.3602C86.3981 82.2988 86.0979 79.3766 85.5848 76.6723C88.4892 79.3395 91.2774 80.4434 93.9398 78.9777L93.9446 78.9684ZM67.0017 39.6941C69.7481 39.7334 72.4752 39.2489 75.0244 38.2688C77.5735 37.2886 79.8938 35.8324 81.8501 33.9849C83.8064 32.1374 85.3598 29.9355 86.4197 27.5073C87.4796 25.0792 88.025 22.4732 88.024 19.8412C88.023 17.2092 87.4758 14.6036 86.4141 12.1762C85.3524 9.74873 83.7974 7.54787 81.8398 5.70168C79.8821 3.85549 77.5608 2.40085 75.0109 1.42241C72.461 0.44397 69.7335 -0.0387215 66.9872 0.00242578C61.5492 0.0838992 56.3629 2.21157 52.5481 5.92601C48.7332 9.64045 46.596 14.6436 46.5979 19.8551C46.5998 25.0667 48.7407 30.0684 52.5583 33.7803C56.3758 37.4921 61.5637 39.6163 67.0017 39.6941ZM108.602 52.283C113.025 52.1592 117.224 50.3883 120.307 47.3463C123.39 44.3044 125.115 40.2308 125.115 35.9903C125.115 31.7498 123.39 27.6762 120.307 24.6343C117.224 21.5923 113.025 19.8214 108.602 19.6975C104.091 19.6981 99.7656 21.4158 96.5766 24.4726C93.3875 27.5294 91.5962 31.6749 91.5969 35.9972C91.5975 40.3196 93.39 44.4646 96.58 47.5206C99.77 50.5765 104.096 52.2929 108.607 52.2923L108.602 52.283ZM129.32 62.1631C126.89 57.9513 123.918 54.5466 120.936 52.1671C117.369 54.6995 113.051 56.0729 108.612 56.0866C104.952 56.0866 101.544 55.1265 98.5625 53.5354C100.963 58.6053 102.45 63.7402 102.725 68.3323C103.18 75.3643 100.886 80.5779 96.2971 83.0132C95.3136 83.531 94.2443 83.8825 93.1362 84.0522C92.8603 85.8705 92.6715 87.763 92.6715 89.7576C92.6715 100.95 97.1975 109.991 102.779 109.991C106.138 109.991 107.813 106.697 108.607 101.66C109.396 106.67 111.066 109.991 114.416 109.991C119.958 109.991 124.532 100.946 124.532 89.7668C124.532 87.2481 124.276 84.85 123.855 82.6235C126.236 84.8175 128.531 85.7221 130.719 84.516C135.593 81.9185 134.964 71.9086 129.315 62.1584L129.32 62.1631ZM25.4014 52.283C28.7633 52.2812 32.0492 51.3242 34.8436 49.5331C37.638 47.742 39.8154 45.1971 41.1007 42.2203C42.3859 39.2434 42.7212 35.9682 42.0641 32.8088C41.4071 29.6494 39.7872 26.7476 37.4093 24.4703C35.0313 22.1929 32.0022 20.6423 28.7047 20.0145C25.4072 19.3867 21.9895 19.7098 18.8837 20.9431C15.7779 22.1764 13.1234 24.2643 11.2558 26.9431C9.38821 29.6218 8.39141 32.7711 8.39141 35.9926C8.39269 40.3152 10.1852 44.4604 13.3749 47.5169C16.5646 50.5734 20.8904 52.2911 25.4014 52.2923V52.283ZM37.6723 82.9992C29.9661 78.8942 29.2593 66.6531 35.465 53.5262C32.3976 55.1949 28.9334 56.0783 25.4062 56.0913C20.7786 56.0913 16.5382 54.6069 13.0626 52.1671C10.0856 54.542 7.11832 57.9467 4.67865 62.1538C-0.970361 71.9132 -1.58996 81.9231 3.28939 84.5114C5.46767 85.7081 7.76697 84.8129 10.134 82.6282C9.69925 84.9833 9.48059 87.3705 9.48055 89.7622C9.48055 100.95 14.0065 109.986 19.5878 109.986C22.9472 109.986 24.622 106.693 25.4159 101.66C26.2146 106.67 27.8846 109.991 31.2246 109.991C36.7768 109.991 41.3415 100.946 41.3415 89.7668C41.3415 87.7584 41.1479 85.8612 40.872 84.0429C39.7517 83.8737 38.6706 83.5189 37.6772 82.9946L37.6723 82.9992Z" fill="#435739"/>
</svg>
