<svg width="18" height="18" viewBox="0 0 18 18" fill="none" xmlns="http://www.w3.org/2000/svg">
<path d="M9.93615 1.10198L5.56579 5.49626C5.27391 5.78974 5.10824 6.19426 5.10824 6.61465V14.5386C5.10824 15.4111 5.81823 16.125 6.68599 16.125H13.7859C14.417 16.125 14.9849 15.7443 15.2374 15.1652L17.8091 9.12907C18.4718 7.55855 17.3279 5.81353 15.6318 5.81353H11.1747L11.9241 2.18072C12.003 1.78413 11.8847 1.3796 11.6007 1.09405C11.1352 0.634002 10.3937 0.634002 9.93615 1.10198ZM1.95275 16.125C2.82051 16.125 3.53049 15.4111 3.53049 14.5386V8.1931C3.53049 7.32059 2.82051 6.60672 1.95275 6.60672C1.08499 6.60672 0.375 7.32059 0.375 8.1931V14.5386C0.375 15.4111 1.08499 16.125 1.95275 16.125Z" fill="#A6A9AF"/>
</svg>
