<svg width="48" height="49" viewBox="0 0 48 49" fill="none" xmlns="http://www.w3.org/2000/svg">
<rect y="0.5" width="48" height="48" rx="24" fill="#DBECF0"/>
<path d="M34.2195 23.6376C35.6959 19.2516 35.1498 15.2057 31.9624 11.7774C29.3963 9.01671 26.1638 8.16276 22.5288 8.61412C18.1373 9.15925 14.1958 13.0076 13.6449 17.5062C13.4516 19.0878 13.1816 20.6094 12.5224 22.051C12.368 22.3886 12.2476 22.7424 12.1114 23.09C11.7806 23.9377 11.4279 24.7779 11.1239 25.6356C10.7153 26.7934 11.3501 27.7336 12.548 27.7824C12.8265 27.7936 13.1062 27.7836 13.4832 27.7836C13.4832 28.7276 13.4625 29.559 13.4868 30.388C13.5513 32.5585 15.114 34.4427 17.2143 34.7502C18.2687 34.904 19.3547 34.8828 20.4249 34.8578C20.9369 34.8453 21.1242 35.0403 21.2652 35.4992C21.6945 36.9045 22.1567 38.2998 22.6164 39.6951C22.8596 40.4353 23.2633 40.6504 23.9663 40.4003C26.9239 39.3476 29.8803 38.2911 32.8331 37.2233C33.5993 36.9457 33.7732 36.3781 33.3962 35.6442C33.0666 35.0028 32.7382 34.3551 32.4719 33.6837C31.5537 31.3669 31.5051 29.1014 32.7759 26.8584C33.3524 25.8406 33.8449 24.7504 34.2195 23.6376ZM23.4117 30.3267C22.9326 30.3267 22.5434 29.9266 22.5434 29.434C22.5434 28.9414 22.9326 28.5413 23.4117 28.5413C23.8909 28.5413 24.28 28.9414 24.28 29.434C24.28 29.9266 23.8909 30.3267 23.4117 30.3267ZM27.5381 18.6727C27.5381 19.9155 27.0674 21.0833 26.2125 21.9622L24.3007 23.9277V26.9109H22.4692V23.1488L24.9173 20.6319C25.4256 20.1093 25.7066 19.4141 25.7066 18.674V18.1001C25.7066 17.3712 25.4196 16.6572 24.9173 16.1421L24.8954 16.1196C24.3822 15.592 23.706 15.3044 22.9873 15.3044C22.2685 15.3044 21.5912 15.592 21.0828 16.1159C20.5745 16.6385 20.2935 17.3337 20.2935 18.0738V20.2106H18.462V18.0738C18.462 16.831 18.9327 15.6633 19.7876 14.7843C21.5522 12.9701 24.4223 12.9701 26.1857 14.7843L26.2076 14.8068C27.0662 15.6895 27.5368 16.8573 27.5368 18.1001V18.674L27.5381 18.6727Z" fill="#93C5D1"/>
</svg>
