<svg width="18" height="18" viewBox="0 0 18 18" fill="none" xmlns="http://www.w3.org/2000/svg">
<path d="M8.06385 16.898L12.4342 12.5037C12.7261 12.2103 12.8918 11.8057 12.8918 11.3853L12.8918 3.46138C12.8918 2.58887 12.1818 1.875 11.314 1.875L4.21415 1.875C3.58305 1.875 3.01506 2.25573 2.76262 2.83476L0.190889 8.87094C-0.471764 10.4415 0.672103 12.1865 2.36818 12.1865L6.82532 12.1865L6.07589 15.8193C5.997 16.2159 6.11533 16.6204 6.39933 16.9059C6.86476 17.366 7.6063 17.366 8.06385 16.898ZM16.0473 1.875C15.1795 1.875 14.4695 2.58887 14.4695 3.46138L14.4695 9.8069C14.4695 10.6794 15.1795 11.3933 16.0473 11.3933C16.915 11.3933 17.625 10.6794 17.625 9.8069L17.625 3.46138C17.625 2.58887 16.915 1.875 16.0473 1.875Z" fill="#A6A9AF"/>
</svg>
