<svg width="65" height="84" viewBox="0 0 65 84" fill="none" xmlns="http://www.w3.org/2000/svg">
<path d="M65 29.4019C65.0006 23.7666 63.2107 18.2498 59.8435 13.5086C56.4762 8.76733 51.6735 5.00143 46.0073 2.65934C40.341 0.317239 34.05 -0.502362 27.8834 0.298135C21.7168 1.09863 15.9345 3.4855 11.225 7.17449C6.51552 10.8635 3.07736 15.6991 1.31996 21.1056C-0.437442 26.5121 -0.440034 32.2616 1.31249 37.6693C3.06501 43.0771 6.4988 47.9153 11.2049 51.6077C15.9111 55.3002 21.6913 57.6914 27.8571 58.4964V64.4007H17.0238C15.7924 64.4007 14.6115 64.8432 13.7408 65.6308C12.8701 66.4184 12.381 67.4867 12.381 68.6005C12.381 69.7144 12.8701 70.7827 13.7408 71.5703C14.6115 72.3579 15.7924 72.8004 17.0238 72.8004H27.8571V79.8001C27.8571 80.914 28.3463 81.9823 29.217 82.7699C30.0877 83.5575 31.2686 84 32.5 84C33.7314 84 34.9123 83.5575 35.783 82.7699C36.6537 81.9823 37.1429 80.914 37.1429 79.8001V72.8004H47.9762C49.2076 72.8004 50.3885 72.3579 51.2592 71.5703C52.1299 70.7827 52.619 69.7144 52.619 68.6005C52.619 67.4867 52.1299 66.4184 51.2592 65.6308C50.3885 64.8432 49.2076 64.4007 47.9762 64.4007H37.1429V58.4964C44.8733 57.4783 51.9409 53.9789 57.0553 48.6374C62.1697 43.2958 64.9896 36.4684 65 29.4019ZM9.28572 29.4019C9.28572 25.2487 10.6472 21.1887 13.198 17.7354C15.7488 14.2821 19.3744 11.5905 23.6163 10.0011C27.8581 8.41176 32.5257 7.99591 37.0289 8.80617C41.532 9.61643 45.6684 11.6164 48.915 14.5532C52.1616 17.49 54.3725 21.2317 55.2682 25.3052C56.164 29.3786 55.7042 33.6009 53.9472 37.438C52.1902 41.2751 49.2147 44.5547 45.3972 46.8622C41.5796 49.1696 37.0914 50.4012 32.5 50.4012C26.3454 50.3947 20.4449 48.1802 16.0929 44.2435C11.741 40.3068 9.29288 34.9693 9.28572 29.4019Z" fill="#F8F9F5"/>
</svg>
