<svg width="90" height="92" viewBox="0 0 90 92" fill="none" xmlns="http://www.w3.org/2000/svg">
<path fill-rule="evenodd" clip-rule="evenodd" d="M74.9032 26.809C76.7794 28.8824 76.2054 32.0647 73.917 33.6698L61.5976 42.323C59.3117 43.9281 56.1864 43.28 53.9283 41.6395C51.3867 39.7864 48.3356 38.7643 45.1919 38.7128C42.0483 38.661 38.9651 39.5804 36.362 41.3458C34.0483 42.9129 30.9052 43.4572 28.675 41.7762L16.6463 32.7179C14.4161 31.0368 13.9458 27.8343 15.8903 25.8267C19.7409 21.8508 24.3649 18.7077 29.4766 16.5916C34.5883 14.4756 40.0791 13.4314 45.6098 13.5237C51.1404 13.616 56.5934 14.8428 61.6318 17.1283C66.6703 19.4137 71.1871 22.7068 74.9032 26.809ZM70.7183 29.7381C67.4763 26.2885 63.5766 23.5245 59.2496 21.6094C54.9226 19.6943 50.256 18.667 45.5258 18.5881C40.7955 18.5093 36.0974 19.3806 31.7091 21.1504C27.3208 22.9203 23.3314 25.5528 19.9765 28.8925L31.7043 37.723C31.8119 37.7486 31.9234 37.7537 32.033 37.7382C32.43 37.7027 32.9863 37.5204 33.5249 37.1559C37.0982 34.7321 41.3488 33.5086 45.6622 33.6622C45.7612 33.4551 45.8879 33.2626 46.039 33.09L52.9826 25.095C53.4225 24.5881 54.0456 24.2769 54.7147 24.2299C55.3838 24.1829 56.0442 24.4039 56.5505 24.8444C57.0568 25.2848 57.3676 25.9086 57.4146 26.5786C57.4615 27.2485 57.2407 27.9096 56.8008 28.4166L51.3516 34.69C53.3373 35.3496 55.2094 36.312 56.902 37.5432C57.4279 37.9255 57.9766 38.1255 58.3736 38.1761C58.5658 38.2015 58.6669 38.1837 58.7023 38.1736L70.7183 29.7381ZM58.7251 38.166L58.7023 38.1736C58.7124 38.166 58.7226 38.1635 58.7251 38.166ZM31.684 37.7154C31.684 37.7154 31.6916 37.7154 31.7043 37.723L31.684 37.7154Z" fill="#435739"/>
<path fill-rule="evenodd" clip-rule="evenodd" d="M75.8261 91.9999C78.4116 92 80.8989 91.0088 82.7771 89.23C84.6554 87.4512 85.782 85.0198 85.9254 82.4352L89.86 11.5486C89.9363 10.1735 89.7317 8.79723 89.2587 7.50401C88.7856 6.21079 88.0541 5.02777 87.1087 4.02729C86.1634 3.02681 85.0242 2.22989 83.7608 1.68528C82.4974 1.14067 81.1362 0.859806 79.7607 0.859863H10.1124C8.73702 0.860151 7.37618 1.14127 6.11304 1.68603C4.8499 2.2308 3.71099 3.02776 2.76595 4.02821C1.82091 5.02865 1.08959 6.21155 0.616689 7.5046C0.143793 8.79765 -0.0607416 10.1737 0.0155902 11.5486L3.94759 82.4352C4.09108 85.0198 5.21767 87.4512 7.09592 89.23C8.97417 91.0088 11.4615 92 14.0469 91.9999H75.8261ZM14.0469 86.9365H75.8261C77.1193 86.9366 78.3633 86.4406 79.3025 85.5507C80.2417 84.6607 80.8047 83.4444 80.8758 82.1517L84.8103 11.265C84.8481 10.5777 84.7456 9.88983 84.5089 9.24352C84.2722 8.59721 83.9064 8.006 83.4338 7.50604C82.9611 7.00607 82.3916 6.60785 81.7601 6.3357C81.1286 6.06355 80.4482 5.92319 79.7607 5.9232H10.1124C9.42481 5.92319 8.74448 6.06355 8.11294 6.3357C7.48139 6.60785 6.91191 7.00607 6.43929 7.50604C5.96667 8.006 5.60084 8.59721 5.36416 9.24352C5.12747 9.88983 5.0249 10.5777 5.06272 11.265L8.99725 82.1517C9.06837 83.4444 9.63139 84.6607 10.5706 85.5507C11.5098 86.4406 12.7538 86.9366 14.0469 86.9365Z" fill="#435739"/>
</svg>
