<svg width="20" height="20" viewBox="0 0 20 20" fill="none" xmlns="http://www.w3.org/2000/svg">
<path d="M2.01875 20C1.44375 20 0.96375 19.8075 0.57875 19.4225C0.192916 19.0367 0 18.5563 0 17.9813V2.01875C0 1.44375 0.192916 0.96375 0.57875 0.57875C0.96375 0.192916 1.44375 0 2.01875 0H10.0238V1.25H2.01875C1.82708 1.25 1.65083 1.33 1.49 1.49C1.33 1.65083 1.25 1.82708 1.25 2.01875V17.9813C1.25 18.1729 1.33 18.3492 1.49 18.51C1.65083 18.67 1.82708 18.75 2.01875 18.75H10.0238V20H2.01875ZM15.5775 14.4225L14.7 13.5238L17.5988 10.625H6.49V9.375H17.5988L14.6987 6.475L15.5775 5.5775L20 10L15.5775 14.4225Z" fill="#435739"/>
</svg>
