<?xml version="1.0" standalone="no"?>
<!DOCTYPE svg PUBLIC "-//W3C//DTD SVG 20010904//EN"
 "http://www.w3.org/TR/2001/REC-SVG-20010904/DTD/svg10.dtd">
<svg version="1.0" xmlns="http://www.w3.org/2000/svg"
 width="993.000000pt" height="636.000000pt" viewBox="0 0 993.000000 636.000000"
 preserveAspectRatio="xMidYMid meet">

<g transform="translate(0.000000,636.000000) scale(0.100000,-0.100000)"
fill="#000000" stroke="none">
<path d="M5350 4913 c0 -5 9 -40 21 -78 38 -130 111 -198 228 -212 l51 -6 0
36 c0 54 -36 139 -72 174 -42 39 -99 68 -166 82 -63 13 -62 13 -62 4z"/>
<path d="M5375 4557 c-83 -32 -146 -96 -173 -176 -39 -114 13 -285 145 -476
85 -124 192 -149 286 -67 15 14 19 14 35 0 90 -79 195 -59 275 53 58 82 122
200 147 274 54 157 1 308 -133 375 -85 43 -151 42 -242 -4 l-67 -34 -65 34
c-52 28 -75 34 -121 33 -31 0 -71 -6 -87 -12z"/>
<path d="M3825 4499 c-32 -70 -33 -137 -1 -204 24 -53 103 -132 117 -118 18
18 36 119 30 168 -8 57 -50 141 -92 181 l-28 27 -26 -54z"/>
<path d="M4180 4272 c-64 -26 -129 -84 -155 -137 -21 -44 -46 -165 -33 -165 2
0 28 7 57 16 97 28 182 136 180 229 -1 66 -8 74 -49 57z"/>
<path d="M3674 4184 c-9 -36 0 -104 21 -147 32 -68 106 -125 184 -142 l34 -7
-8 57 c-3 31 -13 72 -21 91 -22 53 -82 113 -146 145 l-58 29 -6 -26z"/>
<path d="M4165 3958 c-105 -55 -158 -128 -171 -235 l-7 -63 54 16 c58 17 67
23 117 68 51 48 87 166 66 220 -8 20 -10 20 -59 -6z"/>
<path d="M3677 3893 c-4 -3 -7 -29 -7 -57 1 -115 85 -219 199 -245 l43 -9 -7
56 c-13 112 -67 187 -172 241 -47 24 -47 24 -56 14z"/>
<path d="M4860 3450 c-602 -165 -1105 -301 -1116 -304 -21 -6 -21 -7 -6 -63 9
-32 17 -59 18 -61 2 -4 2246 607 2252 613 11 10 -24 110 -38 112 -8 1 -508
-133 -1110 -297z"/>
<path d="M4150 3644 c-93 -53 -144 -128 -156 -228 -8 -64 -5 -66 69 -40 63 21
129 87 150 149 25 71 21 145 -7 145 -6 0 -31 -12 -56 -26z"/>
<path d="M3677 3583 c-4 -3 -7 -29 -7 -57 0 -116 88 -220 204 -242 l39 -7 -7
54 c-8 63 -38 134 -68 167 -44 46 -146 101 -161 85z"/>
<path d="M4602 2848 l-261 -453 264 -3 c146 -1 383 -1 528 0 l263 3 -260 452
c-144 249 -264 453 -267 453 -3 0 -123 -204 -267 -452z m430 -61 l157 -272
-316 -3 c-174 -1 -318 -1 -320 1 -5 5 308 547 316 547 3 0 77 -123 163 -273z"/>
<path d="M5047 2019 c-58 -14 -108 -43 -154 -91 -61 -62 -87 -127 -87 -214 1
-125 68 -229 183 -283 48 -22 69 -26 151 -26 83 0 101 4 145 27 28 14 73 50
100 80 l50 53 -35 3 c-25 3 -38 -1 -45 -13 -33 -56 -54 -82 -85 -103 -49 -33
-137 -28 -197 12 -115 76 -187 287 -144 419 15 46 80 104 125 112 71 14 153
-20 214 -90 39 -44 41 -45 101 -45 l62 0 -15 29 c-23 43 -101 107 -153 125
-50 17 -154 20 -216 5z"/>
<path d="M1830 2014 c0 -3 11 -22 25 -42 25 -36 25 -38 25 -262 0 -207 -2
-228 -20 -258 -11 -18 -20 -37 -20 -42 0 -6 23 -10 50 -10 54 0 59 7 35 50
-11 20 -14 76 -15 263 0 147 4 237 10 235 5 -1 87 -124 183 -273 l173 -270 47
-3 47 -3 0 274 c0 259 1 276 20 300 31 39 25 47 -30 47 -51 0 -64 -12 -37 -38
14 -15 24 -512 10 -512 -4 0 -87 124 -183 275 l-175 274 -72 1 c-40 0 -73 -2
-73 -6z"/>
<path d="M2520 2014 c0 -3 11 -22 25 -42 24 -35 25 -43 25 -181 0 -192 15
-247 84 -316 100 -99 250 -103 337 -8 66 71 89 162 89 358 0 100 4 136 15 151
26 34 18 44 -35 44 -54 0 -59 -7 -34 -45 13 -20 15 -52 12 -197 -3 -170 -4
-174 -32 -226 -80 -144 -248 -134 -317 20 -21 48 -23 67 -24 213 0 151 1 162
23 189 12 16 22 33 22 37 0 5 -43 9 -95 9 -52 0 -95 -2 -95 -6z"/>
<path d="M3210 1980 c0 -33 3 -40 20 -40 11 0 34 9 52 20 24 15 51 20 101 20
l67 0 0 -233 c0 -229 0 -235 -25 -283 -14 -27 -25 -52 -25 -56 0 -5 43 -8 95
-8 53 0 95 4 95 9 0 6 -10 27 -22 48 -22 36 -23 50 -26 281 l-3 242 68 0 c51
0 75 -5 98 -20 17 -11 40 -20 53 -20 19 0 22 5 22 40 l0 40 -285 0 -285 0 0
-40z"/>
<path d="M3880 2014 c0 -3 11 -20 25 -38 25 -33 25 -33 25 -264 l0 -230 -25
-30 c-40 -48 -34 -52 70 -52 105 0 115 8 70 50 -24 23 -26 29 -23 110 l3 85
30 3 c28 3 38 -6 103 -88 62 -77 73 -96 70 -123 l-3 -32 79 0 c44 0 81 4 82
10 2 6 -14 24 -36 40 -21 17 -63 61 -92 99 -29 38 -66 75 -83 82 l-30 13 28 1
c53 0 125 49 153 102 17 32 18 115 3 155 -14 38 -57 83 -96 99 -23 10 -79 14
-193 14 -88 0 -160 -3 -160 -6z m335 -45 c41 -28 75 -91 75 -138 0 -45 -33
-101 -77 -131 -30 -20 -47 -24 -112 -25 l-76 0 -3 150 c-1 82 0 156 3 163 9
25 146 11 190 -19z"/>
<path d="M4500 2012 c0 -4 9 -25 20 -47 18 -36 20 -59 20 -250 0 -191 -2 -214
-20 -250 -32 -63 -31 -65 70 -65 101 0 105 4 70 62 -18 30 -20 51 -20 253 0
202 2 223 20 253 11 18 20 37 20 42 0 6 -38 10 -90 10 -49 0 -90 -4 -90 -8z"/>
<path d="M5540 2007 c0 -8 9 -22 20 -32 19 -17 20 -31 20 -259 0 -224 -2 -243
-20 -266 -35 -45 -28 -50 70 -50 98 0 105 5 70 50 -16 20 -20 41 -20 113 l0
87 29 0 c25 0 41 -14 105 -92 69 -84 75 -96 70 -125 l-6 -33 81 0 c52 0 81 4
81 11 0 6 -21 30 -47 54 -27 24 -68 70 -93 103 -28 38 -56 64 -75 70 l-30 10
29 1 c48 2 112 39 142 83 24 35 29 51 29 103 0 51 -5 70 -28 103 -47 72 -81
82 -267 82 -127 0 -160 -3 -160 -13z m321 -33 c52 -31 79 -78 79 -139 0 -100
-63 -155 -186 -163 l-74 -5 0 168 0 168 74 -5 c48 -3 85 -12 107 -24z"/>
<path d="M6280 1755 c-59 -153 -116 -282 -132 -302 -15 -19 -25 -39 -22 -44 3
-5 27 -9 55 -9 36 0 49 4 49 14 0 8 -5 18 -11 22 -14 9 -6 56 20 117 l21 48
147 -3 147 -3 24 -60 c23 -57 23 -62 8 -88 -9 -16 -16 -33 -16 -38 0 -10 173
-13 184 -2 3 4 -9 23 -28 42 -28 29 -56 90 -139 301 l-104 265 -50 3 -49 3
-104 -266z m190 58 c34 -87 64 -164 67 -170 4 -10 -25 -13 -126 -13 -108 0
-131 3 -131 15 0 13 121 325 126 325 1 0 30 -71 64 -157z"/>
<path d="M6850 2011 c0 -6 10 -27 23 -48 21 -36 22 -48 22 -253 0 -205 -1
-217 -22 -253 -13 -21 -23 -42 -23 -48 0 -5 42 -9 95 -9 52 0 95 3 95 8 0 4
-11 29 -25 56 -21 41 -25 64 -25 133 l0 83 65 0 c58 0 65 2 65 20 0 18 -7 20
-65 20 l-65 0 0 130 0 130 69 0 c59 0 79 -5 137 -35 76 -38 110 -45 100 -19
-3 9 -6 33 -6 55 l0 39 -220 0 c-131 0 -220 -4 -220 -9z"/>
<path d="M7370 1980 c0 -36 3 -40 25 -40 13 0 39 9 57 20 25 15 51 20 101 20
l69 0 -4 -242 c-3 -231 -4 -245 -25 -281 -13 -21 -23 -42 -23 -48 0 -10 173
-13 183 -3 3 3 -5 26 -19 51 -23 45 -24 51 -24 286 l0 239 74 -4 c52 -2 80 -8
93 -21 11 -9 32 -17 46 -17 25 0 27 3 27 40 l0 40 -290 0 -290 0 0 -40z"/>
</g>
</svg>
