<svg width="115" height="117" viewBox="0 0 115 117" fill="none" xmlns="http://www.w3.org/2000/svg">
<path d="M98.0159 17.2795L110.062 19.7291C110.709 19.8608 111.241 20.3434 111.428 20.9942C111.522 21.3103 111.531 21.6466 111.452 21.9672C111.374 22.2878 111.211 22.5808 110.982 22.815L101.114 32.8624C99.933 34.0614 98.3329 34.7347 96.6647 34.7344H88.4781L67.9219 55.6555C68.314 57.162 68.3862 58.7363 68.1334 60.2734C67.8807 61.8105 67.3089 63.2752 66.4562 64.5698C65.6034 65.8645 64.4893 66.9594 63.188 67.7816C61.8867 68.6038 60.4281 69.1345 58.9094 69.3383C57.3907 69.542 55.8468 69.4141 54.3805 68.9632C52.9142 68.5123 51.5591 67.7486 50.4057 66.7231C49.2522 65.6976 48.3268 64.4338 47.691 63.0159C47.0553 61.598 46.7238 60.0585 46.7188 58.5C46.7198 56.8173 47.1012 55.1575 47.8333 53.6486C48.5654 52.1398 49.6287 50.8224 50.941 49.7983C52.2533 48.7741 53.7794 48.0707 55.4015 47.7422C57.0236 47.4138 58.6982 47.4692 60.2959 47.9042L80.8594 26.9758V18.6615C80.8594 16.965 81.5206 15.3343 82.6994 14.1351L92.575 4.0877C92.8052 3.85465 93.0932 3.68942 93.4083 3.60958C93.7234 3.52975 94.0539 3.5383 94.3647 3.63433C95.0044 3.82445 95.4787 4.36558 95.6081 5.0237L98.0159 17.2795Z" fill="#435739"/>
<path d="M14.375 58.5001C14.3824 64.7739 15.7122 70.9732 18.2747 76.6797C20.8372 82.3862 24.5728 87.4672 29.2296 91.58C33.8863 95.6928 39.3559 98.7417 45.2693 100.521C51.1827 102.3 57.4024 102.769 63.5088 101.895C69.6153 101.02 75.4664 98.824 80.6676 95.4535C85.8688 92.0831 90.299 87.617 93.6594 82.3565C97.0197 77.096 99.2322 71.1635 100.147 64.9591C101.063 58.7548 100.659 52.4229 98.9647 46.3906C98.7268 45.6858 98.6323 44.9392 98.6871 44.1961C98.7418 43.453 98.9446 42.729 99.2832 42.0682C99.6217 41.4075 100.089 40.8237 100.656 40.3525C101.224 39.8812 101.879 39.5324 102.584 39.3272C103.288 39.1221 104.025 39.0648 104.752 39.159C105.479 39.2532 106.179 39.4968 106.81 39.8751C107.441 40.2533 107.99 40.7583 108.423 41.3592C108.856 41.9601 109.164 42.6445 109.329 43.3705C112.61 55.0524 111.987 67.5121 107.557 78.7947C103.127 90.0773 95.1408 99.5445 84.8514 105.711C74.562 111.878 62.5517 114.395 50.7046 112.867C38.8574 111.34 27.8439 105.854 19.3919 97.2709C10.949 88.674 5.55143 77.4679 4.04658 65.412C2.54172 53.356 5.01479 41.133 11.0775 30.6619C17.1403 20.1908 26.4493 12.0647 37.5431 7.55929C48.637 3.0539 60.8874 2.4244 72.3709 5.76963C73.7383 6.17629 74.8918 7.11708 75.5795 8.38642C76.2671 9.65575 76.4329 11.1504 76.0407 12.5438C75.6484 13.9371 74.73 15.1158 73.4862 15.8223C72.2423 16.5289 70.7741 16.7057 69.4025 16.3143C62.981 14.4398 56.2194 14.1085 49.6506 15.3466C43.0819 16.5846 36.8856 19.358 31.5502 23.4483C26.2148 27.5386 21.8862 32.8338 18.9057 38.9166C15.9252 44.9994 14.3742 51.7034 14.375 58.5001Z" fill="#435739"/>
<path d="M35.9375 58.5001C35.9379 62.497 37.011 66.418 39.0408 69.84C41.0707 73.2621 43.9804 76.0554 47.456 77.9187C50.9316 79.7819 54.8413 80.6443 58.7633 80.413C62.6854 80.1816 66.4709 78.8652 69.7116 76.6058C72.9517 74.3407 75.5214 71.2175 77.143 67.5739C78.7645 63.9303 79.3761 59.905 78.9116 55.9334C78.7859 54.9696 78.9151 53.9892 79.2857 53.093C79.6563 52.1969 80.2549 51.4175 81.02 50.835C81.7851 50.2525 82.689 49.888 83.6386 49.779C84.5881 49.67 85.5491 49.8205 86.4225 50.215C87.2957 50.6043 88.0518 51.2223 88.6137 52.0059C89.1756 52.7896 89.5232 53.7108 89.621 54.6756C90.4019 61.4624 89.0869 68.3281 85.8584 74.32C82.6299 80.3118 77.6481 85.1325 71.6044 88.113C65.5607 91.0934 58.7549 92.0858 52.1316 90.9524C45.5084 89.819 39.3962 86.6159 34.6435 81.7879C29.8908 76.9598 26.7332 70.7462 25.6091 64.0095C24.485 57.2729 25.4501 50.3472 28.3704 44.1939C31.2907 38.0405 36.0215 32.9648 41.906 29.671C47.7905 26.3773 54.5369 25.0289 61.2088 25.8132C61.9232 25.8806 62.6172 26.0925 63.25 26.4363C63.8829 26.7802 64.442 27.2491 64.8944 27.8156C65.3469 28.3821 65.6836 29.0348 65.8849 29.7355C66.0862 30.4361 66.148 31.1706 66.0666 31.8958C65.9853 32.621 65.7625 33.3225 65.4112 33.959C65.06 34.5955 64.5874 35.1542 64.0212 35.6025C63.4549 36.0508 62.8064 36.3795 62.1137 36.5695C61.4209 36.7595 60.6979 36.8068 59.9869 36.7088C56.9657 36.3519 53.9044 36.6493 51.0042 37.5815C48.104 38.5138 45.4304 40.0596 43.1591 42.1177C40.8878 44.1757 39.0702 46.6993 37.8256 49.5228C36.5809 52.3463 35.9375 55.4057 35.9375 58.5001Z" fill="#435739"/>
</svg>
