<svg width="65" height="76" viewBox="0 0 65 76" fill="none" xmlns="http://www.w3.org/2000/svg">
<path d="M61.2501 0H46.2505C45.256 0 44.3022 0.461892 43.5989 1.28407C42.8957 2.10624 42.5006 3.22135 42.5006 4.38407C42.5006 5.5468 42.8957 6.66191 43.5989 7.48408C44.3022 8.30626 45.256 8.76815 46.2505 8.76815H52.1879L41.9631 20.7294C36.6477 16.0851 30.0251 13.9668 23.4278 14.8007C16.8304 15.6347 10.7481 19.3589 6.40455 25.224C2.06105 31.0892 -0.221242 38.6599 0.0169281 46.4129C0.255098 54.1659 2.99605 61.5258 7.68825 67.0115C12.3805 72.4973 18.6757 75.7018 25.3072 75.9802C31.9387 76.2587 38.4143 73.5904 43.431 68.5123C48.4477 63.4342 51.6332 56.3232 52.3465 48.6102C53.0598 40.8971 51.2479 33.1544 47.2755 26.9401L57.5002 14.9789V21.9204C57.5002 23.0831 57.8953 24.1982 58.5985 25.0204C59.3018 25.8426 60.2556 26.3044 61.2501 26.3044C62.2446 26.3044 63.1984 25.8426 63.9017 25.0204C64.6049 24.1982 65 23.0831 65 21.9204V4.38407C65 3.22135 64.6049 2.10624 63.9017 1.28407C63.1984 0.461892 62.2446 0 61.2501 0ZM39.5038 60.8144C36.8814 63.8791 33.5405 65.966 29.9037 66.8111C26.2668 67.6561 22.4973 67.2215 19.0717 65.5622C15.6462 63.9028 12.7183 61.0932 10.6585 57.4886C8.59857 53.884 7.49913 49.6463 7.49913 45.3112C7.49913 40.9762 8.59857 36.7384 10.6585 33.1339C12.7183 29.5293 15.6462 26.7197 19.0717 25.0603C22.4973 23.4009 26.2668 22.9663 29.9037 23.8114C33.5405 24.6565 36.8814 26.7433 39.5038 29.808C43.014 33.9239 44.9852 39.499 44.9852 45.3112C44.9852 51.1235 43.014 56.6986 39.5038 60.8144Z" fill="#435739"/>
</svg>
