<svg width="26" height="24" viewBox="0 0 26 24" fill="none" xmlns="http://www.w3.org/2000/svg">
<path fill-rule="evenodd" clip-rule="evenodd" d="M8.6575 0.880012C9.04211 0.75191 9.45789 0.75191 9.8425 0.880012L16.75 3.18251L23.3612 0.978762C23.6055 0.897371 23.8656 0.875174 24.1201 0.913997C24.3746 0.95282 24.6162 1.05155 24.825 1.20206C25.0339 1.35257 25.204 1.55055 25.3214 1.77969C25.4387 2.00883 25.4999 2.26257 25.5 2.52001V19.05C25.5 19.4436 25.3761 19.8272 25.1459 20.1464C24.9157 20.4657 24.5909 20.7044 24.2175 20.8288L17.3425 23.12C16.9575 23.2488 16.5425 23.2488 16.1575 23.12L9.25 20.8175L2.63875 23.0213C2.39451 23.1027 2.13444 23.1248 1.87994 23.086C1.62545 23.0472 1.38382 22.9485 1.17496 22.798C0.966098 22.6474 0.795988 22.4495 0.67864 22.2203C0.561291 21.9912 0.500063 21.7374 0.5 21.48V4.95001C0.500036 4.55644 0.623922 4.17285 0.854103 3.8536C1.08428 3.53435 1.40909 3.29563 1.7825 3.17126L8.6575 0.880012ZM8 18.6V3.73376L3 5.40126V20.2663L8 18.5988V18.6ZM10.5 3.73501V18.6L15.5 20.2675V5.40001L10.5 3.73251V3.73501ZM18 5.40251V20.2675L23 18.6V3.73376L18 5.40251Z" fill="#F5F5F5"/>
</svg>
