<svg width="132" height="125" viewBox="0 0 132 125" fill="none" xmlns="http://www.w3.org/2000/svg">
<path d="M69.1866 0C69.1866 0 65.7147 1.75527 62.2462 4.34014C60.5121 5.63258 58.7569 7.13201 57.3692 8.85889C55.9814 10.5855 54.8504 12.6359 55.0224 15.0334C55.2136 17.6979 57.037 19.6822 58.9819 20.8719C60.9266 22.0614 63.1348 22.7811 65.2145 23.491C67.2945 24.2009 69.2464 24.901 70.4846 25.6587C71.7231 26.4161 72.1059 26.9068 72.1678 27.772C72.175 27.8702 72.0558 28.3946 71.4678 29.1262C70.8798 29.8579 69.9338 30.7 68.9442 31.4378C66.965 32.9125 64.9003 33.9696 64.9003 33.9696L67.0997 38.22C67.0997 38.22 69.4642 37.0273 71.8431 35.2546C73.0326 34.3682 74.2478 33.3366 75.2403 32.1018C76.2329 30.8664 77.1137 29.3311 76.9776 27.4328C76.7863 24.7683 74.963 22.784 73.0181 21.5943C71.0734 20.4046 68.8652 19.6851 66.7855 18.9752C64.7055 18.2653 62.7536 17.5652 61.5154 16.8075C60.2769 16.0498 59.8941 15.5594 59.8322 14.6942C59.7893 14.0966 60.1582 13.0573 61.1411 11.8341C62.1243 10.6107 63.6106 9.29996 65.1451 8.15641C68.2136 5.86957 71.3861 4.25044 71.3861 4.25044L69.1866 0ZM34.8958 12.7386C34.8958 12.7386 31.4238 14.4939 27.9554 17.0787C26.2213 18.3712 24.466 19.8706 23.0783 21.5975C21.6906 23.3241 20.5595 25.3745 20.7315 27.772C20.9228 30.4365 22.7461 32.4208 24.691 33.6105C26.6357 34.7999 28.844 35.5197 30.9237 36.2296C33.0036 36.9395 34.9555 37.6396 36.1937 38.3973C37.4322 39.1547 37.8151 39.6454 37.8769 40.5106C37.8842 40.6087 37.765 41.1332 37.1769 41.8648C36.5889 42.5965 35.6429 43.4386 34.6533 44.1763C32.6741 45.6511 30.6094 46.7081 30.6094 46.7081L32.8089 50.9586C32.8089 50.9586 35.1733 49.7659 37.5522 47.9931C38.7417 47.1068 39.9569 46.0752 40.9495 44.8401C41.942 43.605 42.8229 42.0694 42.6868 40.1714C42.4955 37.5069 40.6722 35.5226 38.7272 34.3329C36.7826 33.1431 34.5743 32.4237 32.4946 31.7138C30.4147 31.0039 28.4628 30.3038 27.2245 29.5461C25.986 28.7884 25.6032 28.298 25.5413 27.4328C25.4985 26.8352 25.8674 25.7959 26.8503 24.5727C27.8335 23.3493 29.3198 22.0385 30.8543 20.895C33.9228 18.6081 37.0952 16.989 37.0952 16.989L34.8958 12.7386ZM103.478 12.7386C103.478 12.7386 100.006 14.4939 96.5371 17.0787C94.803 18.3712 93.0477 19.8706 91.66 21.5975C90.2723 23.3241 89.1412 25.3745 89.3132 27.772C89.5045 30.4365 91.3278 32.4208 93.2728 33.6105C95.2174 34.7999 97.4257 35.5197 99.5054 36.2296C101.585 36.9395 103.537 37.6396 104.775 38.3973C106.014 39.1547 106.397 39.6454 106.459 40.5106C106.466 40.6087 106.347 41.1332 105.759 41.8648C105.171 42.5965 104.225 43.4386 103.235 44.1763C101.256 45.6511 99.1911 46.7081 99.1911 46.7081L101.391 50.9586C101.391 50.9586 103.755 49.7659 106.134 47.9931C107.323 47.1068 108.539 46.0752 109.531 44.8401C110.524 43.605 111.405 42.0694 111.268 40.1714C111.077 37.5069 109.254 35.5226 107.309 34.3329C105.364 33.1431 103.156 32.4237 101.076 31.7138C98.9964 31.0039 97.0445 30.3038 95.8063 29.5461C94.5678 28.7884 94.1849 28.298 94.1231 27.4328C94.0802 26.8352 94.4491 25.7959 95.432 24.5727C96.4152 23.3493 97.9015 22.0385 99.436 20.895C102.504 18.6081 105.677 16.989 105.677 16.989L103.478 12.7386ZM66 44.3213C62.5173 44.3213 60.162 45.8907 58.3617 48.5658C57.6164 49.6733 57.015 50.9809 56.5628 52.4047C59.5954 51.9782 62.7432 51.7532 66 51.7532C69.2568 51.7532 72.4044 51.9782 75.4372 52.4047C74.985 50.9809 74.3836 49.6733 73.6383 48.5658C71.838 45.8907 69.4827 44.3213 66 44.3213ZM66 56.5291C34.0058 56.5291 14.0943 79.3627 12.8117 102.707H119.188C117.905 79.3627 97.9939 56.5288 66 56.5288V56.5291ZM3.40926 103.938L0 107.315C4.8543 112.124 10.2773 112.26 14.5637 112.26H117.436C121.723 112.26 127.145 112.124 132 107.315L128.591 103.938C124.872 107.621 121.723 107.484 117.436 107.484H14.5637C10.2773 107.484 7.12741 107.621 3.40926 103.938ZM27.6408 117.037L32.9993 125H99.0007L104.359 117.037H27.6408Z" fill="#435739"/>
</svg>
