<svg width="28" height="28" viewBox="0 0 28 28" fill="none" xmlns="http://www.w3.org/2000/svg">
<path d="M10.25 1.5H2.75C2.41848 1.5 2.10054 1.6317 1.86612 1.86612C1.6317 2.10054 1.5 2.41848 1.5 2.75V10.25C1.5 10.5815 1.6317 10.8995 1.86612 11.1339C2.10054 11.3683 2.41848 11.5 2.75 11.5H10.25C10.5815 11.5 10.8995 11.3683 11.1339 11.1339C11.3683 10.8995 11.5 10.5815 11.5 10.25V2.75C11.5 2.41848 11.3683 2.10054 11.1339 1.86612C10.8995 1.6317 10.5815 1.5 10.25 1.5ZM10.25 16.5H2.75C2.41848 16.5 2.10054 16.6317 1.86612 16.8661C1.6317 17.1005 1.5 17.4185 1.5 17.75V25.25C1.5 25.5815 1.6317 25.8995 1.86612 26.1339C2.10054 26.3683 2.41848 26.5 2.75 26.5H10.25C10.5815 26.5 10.8995 26.3683 11.1339 26.1339C11.3683 25.8995 11.5 25.5815 11.5 25.25V17.75C11.5 17.4185 11.3683 17.1005 11.1339 16.8661C10.8995 16.6317 10.5815 16.5 10.25 16.5ZM25.25 1.5H17.75C17.4185 1.5 17.1005 1.6317 16.8661 1.86612C16.6317 2.10054 16.5 2.41848 16.5 2.75V10.25C16.5 10.5815 16.6317 10.8995 16.8661 11.1339C17.1005 11.3683 17.4185 11.5 17.75 11.5H25.25C25.5815 11.5 25.8995 11.3683 26.1339 11.1339C26.3683 10.8995 26.5 10.5815 26.5 10.25V2.75C26.5 2.41848 26.3683 2.10054 26.1339 1.86612C25.8995 1.6317 25.5815 1.5 25.25 1.5Z" stroke="#F5F5F5" stroke-width="2.5" stroke-linejoin="round"/>
<path d="M16.5 16.5H26.5M21.5 21.5H26.5M16.5 26.5H26.5" stroke="white" stroke-width="2.5" stroke-linecap="round" stroke-linejoin="round"/>
</svg>
