<svg width="34" height="35" viewBox="0 0 34 35" fill="none" xmlns="http://www.w3.org/2000/svg">
<path d="M33.25 17.2403C33.2553 20.4416 32.3032 23.5713 30.5159 26.2273C29.042 28.4256 27.0492 30.2268 24.7136 31.4718C22.378 32.7168 19.7717 33.3671 17.125 33.3653C14.4783 33.3671 11.872 32.7168 9.53641 31.4718C7.20083 30.2268 5.20799 28.4256 3.73409 26.2273C2.33073 24.1354 1.43699 21.7437 1.12453 19.2442C0.812071 16.7446 1.08958 14.2065 1.9348 11.8335C2.78002 9.46053 4.16945 7.31856 5.99171 5.57932C7.81396 3.84008 10.0183 2.55196 12.4282 1.81822C14.838 1.08448 17.3862 0.925534 19.8685 1.35412C22.3508 1.7827 24.6982 2.7869 26.7224 4.28621C28.7467 5.78551 30.3915 7.73822 31.5251 9.9878C32.6587 12.2374 33.2494 14.7212 33.25 17.2403Z" stroke="#435739" stroke-width="1.25"/>
<path d="M19.8125 11.8653C19.8125 12.578 19.5293 13.2616 19.0253 13.7656C18.5213 14.2696 17.8378 14.5528 17.125 14.5528V16.3444C17.7132 16.3444 18.2957 16.2286 18.8391 16.0035C19.3825 15.7784 19.8763 15.4485 20.2922 15.0325C20.7082 14.6166 21.0381 14.1228 21.2632 13.5794C21.4883 13.0359 21.6042 12.4535 21.6042 11.8653H19.8125ZM17.125 14.5528C16.4122 14.5528 15.7286 14.2696 15.2246 13.7656C14.7206 13.2616 14.4375 12.578 14.4375 11.8653H12.6458C12.6458 12.4535 12.7617 13.0359 12.9868 13.5794C13.2119 14.1228 13.5418 14.6166 13.9577 15.0325C14.7977 15.8725 15.937 16.3444 17.125 16.3444V14.5528ZM14.4375 11.8653C14.4375 11.1525 14.7206 10.4689 15.2246 9.96493C15.7286 9.46092 16.4122 9.17778 17.125 9.17778V7.38611C15.937 7.38611 14.7977 7.85802 13.9577 8.69803C13.1177 9.53803 12.6458 10.6773 12.6458 11.8653H14.4375ZM17.125 9.17778C17.8378 9.17778 18.5213 9.46092 19.0253 9.96493C19.5293 10.4689 19.8125 11.1525 19.8125 11.8653H21.6042C21.6042 10.6773 21.1322 9.53803 20.2922 8.69803C19.4522 7.85802 18.3129 7.38611 17.125 7.38611V9.17778ZM4.88074 27.7323L4.02074 27.4779L3.88278 27.9455L4.19991 28.3164L4.88074 27.7323ZM29.3692 27.7323L30.0501 28.3164L30.3672 27.9455L30.2275 27.4779L29.3692 27.7323ZM11.75 23.5111H22.5V21.7194H11.75V23.5111ZM11.75 21.7194C10.0137 21.7198 8.32395 22.2803 6.93175 23.3178C5.53955 24.3552 4.51747 25.8142 4.02074 27.4779L5.73895 27.9885C6.1257 26.6947 6.91951 25.5602 8.00244 24.7536C9.08538 23.947 10.3997 23.5112 11.75 23.5111V21.7194ZM17.125 32.4694C14.9271 32.4718 12.7549 31.9972 10.7582 31.0785C8.76149 30.1599 6.9879 28.8189 5.55978 27.1482L4.19991 28.3164C5.79637 30.1828 7.77865 31.6809 10.01 32.7072C12.2414 33.7335 14.6689 34.2637 17.125 34.2611V32.4694ZM22.5 23.5111C23.8506 23.5113 25.165 23.9473 26.248 24.7543C27.3309 25.5613 28.1246 26.6962 28.511 27.9903L30.2275 27.4779C29.7307 25.8142 28.7104 24.3552 27.3182 23.3178C25.926 22.2803 24.2362 21.7198 22.5 21.7194V23.5111ZM28.6902 27.1482C27.2621 28.8189 25.4885 30.1599 23.4918 31.0785C21.4951 31.9972 19.3229 32.4718 17.125 32.4694V34.2611C19.5811 34.2637 22.0085 33.7335 24.2399 32.7072C26.4713 31.6809 28.4536 30.1828 30.0501 28.3164L28.6902 27.1482Z" fill="#435739"/>
</svg>
