<svg width="30" height="30" viewBox="0 0 30 30" fill="none" xmlns="http://www.w3.org/2000/svg">
<path d="M23.2 24.2C21.5905 24.2 20.3 25.4905 20.3 27.1C20.3 27.8691 20.6055 28.6068 21.1494 29.1506C21.6932 29.6945 22.4309 30 23.2 30C23.9691 30 24.7068 29.6945 25.2506 29.1506C25.7945 28.6068 26.1 27.8691 26.1 27.1C26.1 26.3309 25.7945 25.5932 25.2506 25.0494C24.7068 24.5055 23.9691 24.2 23.2 24.2ZM0 1V3.9H2.9L8.12 14.9055L6.148 18.458C5.9305 18.864 5.8 19.3425 5.8 19.85C5.8 20.6191 6.10553 21.3568 6.64939 21.9006C7.19325 22.4445 7.93087 22.75 8.7 22.75H26.1V19.85H9.309C9.21286 19.85 9.12066 19.8118 9.05267 19.7438C8.98469 19.6758 8.9465 19.5836 8.9465 19.4875C8.9465 19.415 8.961 19.357 8.99 19.3135L10.295 16.95H21.0975C22.185 16.95 23.142 16.341 23.635 15.4565L28.826 6.075C28.9275 5.843 29 5.5965 29 5.35C29 4.96544 28.8472 4.59662 28.5753 4.3247C28.3034 4.05277 27.9346 3.9 27.55 3.9H6.1045L4.7415 1M8.7 24.2C7.0905 24.2 5.8 25.4905 5.8 27.1C5.8 27.8691 6.10553 28.6068 6.64939 29.1506C7.19325 29.6945 7.93087 30 8.7 30C9.46913 30 10.2068 29.6945 10.7506 29.1506C11.2945 28.6068 11.6 27.8691 11.6 27.1C11.6 26.3309 11.2945 25.5932 10.7506 25.0494C10.2068 24.5055 9.46913 24.2 8.7 24.2Z" fill="white"/>
</svg>
