<svg width="42" height="42" viewBox="0 0 42 42" fill="none" xmlns="http://www.w3.org/2000/svg">
<path d="M36.5 20.7463C36.5052 23.8732 35.5752 26.9302 33.8295 29.5244C32.3899 31.6715 30.4434 33.4309 28.1621 34.6469C25.8809 35.8629 23.3351 36.4981 20.75 36.4964C18.1649 36.4981 15.6191 35.8629 13.3379 34.6469C11.0566 33.4309 9.11013 31.6715 7.6705 29.5244C6.29978 27.4811 5.42683 25.1451 5.12164 22.7036C4.81644 20.2622 5.08749 17.7832 5.91306 15.4653C6.73862 13.1475 8.09574 11.0554 9.87562 9.35657C11.6555 7.65778 13.8086 6.39962 16.1624 5.68294C18.5162 4.96627 21.0051 4.81102 23.4297 5.22963C25.8543 5.64825 28.147 6.62909 30.1242 8.09353C32.1014 9.55797 33.708 11.4653 34.8152 13.6625C35.9224 15.8598 36.4994 18.2859 36.5 20.7463Z" stroke="white" stroke-width="1.25"/>
<path d="M23.375 15.4963C23.375 16.1925 23.0984 16.8602 22.6061 17.3525C22.1139 17.8448 21.4462 18.1213 20.75 18.1213V19.8713C21.3245 19.8713 21.8934 19.7582 22.4242 19.5383C22.955 19.3184 23.4373 18.9962 23.8436 18.5899C24.2498 18.1837 24.5721 17.7014 24.792 17.1706C25.0118 16.6398 25.125 16.0709 25.125 15.4963H23.375ZM20.75 18.1213C20.0538 18.1213 19.3861 17.8448 18.8938 17.3525C18.4015 16.8602 18.125 16.1925 18.125 15.4963H16.375C16.375 16.0709 16.4881 16.6398 16.708 17.1706C16.9279 17.7014 17.2501 18.1837 17.6564 18.5899C18.4769 19.4104 19.5897 19.8713 20.75 19.8713V18.1213ZM18.125 15.4963C18.125 14.8001 18.4015 14.1325 18.8938 13.6402C19.3861 13.1479 20.0538 12.8713 20.75 12.8713V11.1213C19.5897 11.1213 18.4769 11.5823 17.6564 12.4027C16.8359 13.2232 16.375 14.336 16.375 15.4963H18.125ZM20.75 12.8713C21.4462 12.8713 22.1139 13.1479 22.6061 13.6402C23.0984 14.1325 23.375 14.8001 23.375 15.4963H25.125C25.125 14.336 24.664 13.2232 23.8436 12.4027C23.0231 11.5823 21.9103 11.1213 20.75 11.1213V12.8713ZM8.79048 30.9943L7.95048 30.7458L7.81573 31.2026L8.12548 31.5648L8.79048 30.9943ZM32.7095 30.9943L33.3745 31.5648L33.6842 31.2026L33.5477 30.7458L32.7095 30.9943ZM15.5 26.8713H26V25.1213H15.5V26.8713ZM15.5 25.1213C13.8041 25.1216 12.1536 25.6692 10.7938 26.6825C9.43397 27.6958 8.43566 29.1209 7.95048 30.7458L9.62873 31.2446C10.0065 29.9809 10.7818 28.8728 11.8396 28.0849C12.8973 27.2971 14.1811 26.8714 15.5 26.8713V25.1213ZM20.75 35.6213C18.6032 35.6236 16.4815 35.1601 14.5312 34.2628C12.581 33.3655 10.8486 32.0557 9.45373 30.4238L8.12548 31.5648C9.68482 33.3879 11.621 34.8511 13.8005 35.8536C15.98 36.856 18.351 37.3738 20.75 37.3713V35.6213ZM26 26.8713C27.3191 26.8716 28.603 27.2974 29.6608 28.0856C30.7186 28.8738 31.4938 29.9823 31.8712 31.2463L33.5477 30.7458C33.0626 29.1209 32.066 27.6958 30.7062 26.6825C29.3463 25.6692 27.6958 25.1216 26 25.1213V26.8713ZM32.0462 30.4238C30.6513 32.0557 28.919 33.3655 26.9687 34.2628C25.0185 35.1601 22.8968 35.6236 20.75 35.6213V37.3713C23.149 37.3738 25.52 36.856 27.6995 35.8536C29.879 34.8511 31.8151 33.3879 33.3745 31.5648L32.0462 30.4238Z" fill="white"/>
</svg>
