<svg width="60" height="60" viewBox="0 0 60 60" fill="none" xmlns="http://www.w3.org/2000/svg">
<path fill-rule="evenodd" clip-rule="evenodd" d="M30 5.99999C25.8023 5.99923 21.6778 7.09946 18.0382 9.19088C14.3985 11.2823 11.3711 14.2917 9.25807 17.9188C7.14502 21.5459 6.02025 25.6638 5.99603 29.8615C5.9718 34.0591 7.04897 38.1897 9.12002 41.841C10.5199 40.0217 12.3193 38.5487 14.3793 37.5359C16.4392 36.5231 18.7045 35.9976 21 36H39C41.2955 35.9976 43.5608 36.5231 45.6207 37.5359C47.6807 38.5487 49.4801 40.0217 50.88 41.841C52.951 38.1897 54.0282 34.0591 54.004 29.8615C53.9798 25.6638 52.855 21.5459 50.7419 17.9188C48.6289 14.2917 45.6015 11.2823 41.9618 9.19088C38.3222 7.09946 34.1977 5.99923 30 5.99999ZM53.829 48.228C57.8401 42.9989 60.0096 36.5903 60 30C60 13.431 46.569 0 30 0C13.431 0 3.37597e-05 13.431 3.37597e-05 30C-0.00987054 36.5903 2.15975 42.999 6.17103 48.228L6.15603 48.282L7.22103 49.521C10.0347 52.8105 13.5282 55.4508 17.4607 57.2599C21.3932 59.069 25.6713 60.0038 30 59.9999C36.082 60.0112 42.0222 58.1637 47.025 54.705C49.1578 53.2314 51.0917 51.489 52.779 49.521L53.844 48.282L53.829 48.228ZM30 12C27.6131 12 25.3239 12.9482 23.636 14.636C21.9482 16.3239 21 18.613 21 21C21 23.3869 21.9482 25.6761 23.636 27.3639C25.3239 29.0518 27.6131 30 30 30C32.3869 30 34.6761 29.0518 36.364 27.3639C38.0518 25.6761 39 23.3869 39 21C39 18.613 38.0518 16.3239 36.364 14.636C34.6761 12.9482 32.3869 12 30 12Z" fill="#435739"/>
</svg>
