<svg width="38" height="25" viewBox="0 0 38 25" fill="none" xmlns="http://www.w3.org/2000/svg">
<path d="M6.33333 5H9.5V20H6.33333V5ZM11.0833 5H12.6667V20H11.0833V5ZM14.25 5H19V20H14.25V5ZM20.5833 5H22.1667V20H20.5833V5ZM25.3333 5H28.5V20H25.3333V5ZM30.0833 5H31.6667V20H30.0833V5ZM3.16667 2.5V7.5H0V2.5C0 1.83696 0.33363 1.20107 0.927495 0.732233C1.52136 0.263392 2.32681 0 3.16667 0H9.5V2.5H3.16667ZM34.8333 0C35.6732 0 36.4786 0.263392 37.0725 0.732233C37.6664 1.20107 38 1.83696 38 2.5V7.5H34.8333V2.5H28.5V0H34.8333ZM3.16667 17.5V22.5H9.5V25H3.16667C2.32681 25 1.52136 24.7366 0.927495 24.2678C0.33363 23.7989 0 23.163 0 22.5V17.5H3.16667ZM34.8333 22.5V17.5H38V22.5C38 23.163 37.6664 23.7989 37.0725 24.2678C36.4786 24.7366 35.6732 25 34.8333 25H28.5V22.5H34.8333Z" fill="#435739"/>
</svg>
