<svg width="24" height="24" viewBox="0 0 24 24" fill="none" xmlns="http://www.w3.org/2000/svg">
<path d="M13.8508 0C14.0294 5.62919e-06 14.2035 0.0567065 14.3478 0.161937C14.4922 0.267167 14.5994 0.415496 14.6541 0.585563L15.5822 3.4695C15.972 3.66019 16.3449 3.8745 16.701 4.11581L19.6642 3.47794C19.839 3.44064 20.021 3.45975 20.1842 3.53253C20.3473 3.60532 20.4832 3.72801 20.5721 3.88294L22.911 7.93125C23.0003 8.08609 23.0381 8.26529 23.019 8.44302C22.9999 8.62074 22.9249 8.78781 22.8047 8.92013L20.7712 11.1645C20.8009 11.5949 20.8009 12.0268 20.7712 12.4571L22.8047 14.7049C22.9249 14.8372 22.9999 15.0043 23.019 15.182C23.0381 15.3597 23.0003 15.5389 22.911 15.6938L20.5721 19.7437C20.4829 19.8984 20.347 20.0207 20.1838 20.0932C20.0207 20.1657 19.8388 20.1845 19.6642 20.1471L16.701 19.5092C16.3466 19.7488 15.972 19.9648 15.5839 20.1555L14.6541 23.0394C14.5994 23.2095 14.4922 23.3578 14.3478 23.4631C14.2035 23.5683 14.0294 23.625 13.8508 23.625H9.17306C8.99442 23.625 8.8204 23.5683 8.67605 23.4631C8.5317 23.3578 8.42447 23.2095 8.36981 23.0394L7.44337 20.1572C7.05462 19.9671 6.67964 19.75 6.32118 19.5075L3.35962 20.1471C3.1849 20.1844 3.00286 20.1652 2.8397 20.0925C2.67655 20.0197 2.54071 19.897 2.45174 19.7421L0.11287 15.6938C0.0235578 15.5389 -0.014272 15.3597 0.0048351 15.182C0.0239422 15.0043 0.0989986 14.8372 0.219182 14.7049L2.25262 12.4571C2.22316 12.0279 2.22316 11.5971 2.25262 11.1679L0.219182 8.92013C0.0989986 8.78781 0.0239422 8.62074 0.0048351 8.44302C-0.014272 8.26529 0.0235578 8.08609 0.11287 7.93125L2.45174 3.88125C2.54095 3.72663 2.6769 3.60429 2.84003 3.53182C3.00317 3.45935 3.18509 3.44048 3.35962 3.47794L6.32118 4.1175C6.67893 3.87619 7.05356 3.6585 7.44337 3.46781L8.3715 0.585563C8.42598 0.416044 8.5327 0.268108 8.67637 0.162928C8.82005 0.0577486 8.99331 0.000718314 9.17137 0H13.8491H13.8508ZM13.2332 1.6875H9.79068L8.83218 4.66931L8.18587 4.98488C7.86814 5.14035 7.56142 5.31739 7.26787 5.51475L6.6705 5.91975L3.60599 5.25825L1.88474 8.24175L3.98568 10.5671L3.93506 11.2826C3.9108 11.6355 3.9108 11.9895 3.93506 12.3424L3.98568 13.0579L1.88137 15.3833L3.60431 18.3667L6.66881 17.7069L7.26618 18.1103C7.55973 18.3076 7.86645 18.4847 8.18418 18.6401L8.83049 18.9557L9.79068 21.9375H13.2366L14.1984 18.954L14.8431 18.6401C15.1604 18.485 15.4666 18.308 15.7594 18.1103L16.3551 17.7069L19.4212 18.3667L21.1425 15.3833L19.0399 13.0579L19.0905 12.3424C19.1148 11.989 19.1148 11.6343 19.0905 11.2809L19.0399 10.5654L21.1442 8.24175L19.4212 5.25825L16.3551 5.91638L15.7594 5.51475C15.4666 5.31703 15.1604 5.13997 14.8431 4.98488L14.1984 4.671L13.2349 1.6875H13.2332ZM11.5119 6.75C12.8546 6.75 14.1423 7.28337 15.0917 8.23277C16.0411 9.18217 16.5744 10.4698 16.5744 11.8125C16.5744 13.1552 16.0411 14.4428 15.0917 15.3922C14.1423 16.3416 12.8546 16.875 11.5119 16.875C10.1693 16.875 8.88161 16.3416 7.9322 15.3922C6.9828 14.4428 6.44943 13.1552 6.44943 11.8125C6.44943 10.4698 6.9828 9.18217 7.9322 8.23277C8.88161 7.28337 10.1693 6.75 11.5119 6.75ZM11.5119 8.4375C10.6168 8.4375 9.75838 8.79308 9.12545 9.42601C8.49251 10.0589 8.13693 10.9174 8.13693 11.8125C8.13693 12.7076 8.49251 13.566 9.12545 14.199C9.75838 14.8319 10.6168 15.1875 11.5119 15.1875C12.407 15.1875 13.2655 14.8319 13.8984 14.199C14.5314 13.566 14.8869 12.7076 14.8869 11.8125C14.8869 10.9174 14.5314 10.0589 13.8984 9.42601C13.2655 8.79308 12.407 8.4375 11.5119 8.4375Z" fill="#435739"/>
</svg>
