<svg width="29" height="35" viewBox="0 0 29 35" fill="none" xmlns="http://www.w3.org/2000/svg">
<rect width="29" height="35" fill="#F8F9F5"/>
<path d="M9.66667 24.7917C10.009 24.7917 10.2962 24.6517 10.5282 24.3717C10.7602 24.0917 10.8758 23.7456 10.875 23.3333C10.875 22.9201 10.759 22.574 10.527 22.295C10.295 22.016 10.0082 21.876 9.66667 21.875C9.32431 21.875 9.03753 22.015 8.80633 22.295C8.57514 22.575 8.45914 22.9211 8.45833 23.3333C8.45833 23.7465 8.57433 24.0931 8.80633 24.3731C9.03833 24.6531 9.32511 24.7926 9.66667 24.7917ZM9.66667 18.9583C10.009 18.9583 10.2962 18.8183 10.5282 18.5383C10.7602 18.2583 10.8758 17.9122 10.875 17.5C10.875 17.0868 10.759 16.7407 10.527 16.4617C10.295 16.1826 10.0082 16.0426 9.66667 16.0417C9.32431 16.0417 9.03753 16.1817 8.80633 16.4617C8.57514 16.7417 8.45914 17.0878 8.45833 17.5C8.45833 17.9132 8.57433 18.2598 8.80633 18.5398C9.03833 18.8198 9.32511 18.9593 9.66667 18.9583ZM9.66667 13.125C10.009 13.125 10.2962 12.985 10.5282 12.705C10.7602 12.425 10.8758 12.0789 10.875 11.6667C10.875 11.2535 10.759 10.9074 10.527 10.6283C10.295 10.3493 10.0082 10.2093 9.66667 10.2083C9.32431 10.2083 9.03753 10.3483 8.80633 10.6283C8.57514 10.9083 8.45914 11.2544 8.45833 11.6667C8.45833 12.0799 8.57433 12.4265 8.80633 12.7065C9.03833 12.9865 9.32511 13.126 9.66667 13.125ZM13.2917 24.7917H20.5417V21.875H13.2917V24.7917ZM13.2917 18.9583H20.5417V16.0417H13.2917V18.9583ZM13.2917 13.125H20.5417V10.2083H13.2917V13.125ZM6.04167 30.625C5.37708 30.625 4.80836 30.3397 4.3355 29.769C3.86264 29.1983 3.62581 28.5114 3.625 27.7083V7.29167C3.625 6.48958 3.86183 5.80319 4.3355 5.2325C4.80917 4.66181 5.37789 4.37597 6.04167 4.375H22.9583C23.6229 4.375 24.192 4.66083 24.6657 5.2325C25.1394 5.80417 25.3758 6.49056 25.375 7.29167V27.7083C25.375 28.5104 25.1386 29.1973 24.6657 29.769C24.1929 30.3406 23.6237 30.626 22.9583 30.625H6.04167Z" fill="#435739"/>
</svg>
