<?xml version="1.0" standalone="no"?>
<!DOCTYPE svg PUBLIC "-//W3C//DTD SVG 20010904//EN"
 "http://www.w3.org/TR/2001/REC-SVG-20010904/DTD/svg10.dtd">
<svg version="1.0" xmlns="http://www.w3.org/2000/svg"
 width="512.000000pt" height="512.000000pt" viewBox="0 0 512.000000 512.000000"
 preserveAspectRatio="xMidYMid meet">

<g transform="translate(0.000000,512.000000) scale(0.100000,-0.100000)"
fill="#000000" stroke="none">
<path d="M895 4786 c-41 -18 -83 -69 -90 -110 -4 -18 12 -226 34 -462 22 -236
111 -1169 196 -2074 85 -905 157 -1662 161 -1683 3 -21 17 -51 31 -68 53 -63
-38 -59 1333 -59 905 0 1257 3 1273 11 38 19 76 61 86 93 16 47 404 4204 396
4242 -7 42 -50 93 -92 110 -48 20 -3283 20 -3328 0z m3085 -323 c1 -27 -102
-1128 -105 -1131 -8 -9 -578 191 -815 286 -295 118 -391 150 -540 181 -400 84
-738 41 -1186 -148 l-113 -49 -6 42 c-8 60 -75 789 -75 814 l0 22 1420 0
c1346 0 1420 -1 1420 -17z m-1515 -977 c150 -36 201 -53 495 -172 275 -111
549 -209 754 -270 l128 -38 -6 -46 c-3 -25 -50 -542 -106 -1150 -55 -608 -103
-1120 -106 -1137 l-5 -33 -1059 0 -1059 0 -5 33 c-16 91 -245 2582 -238 2589
15 15 278 130 374 163 227 79 325 95 548 90 144 -3 195 -8 285 -29z"/>
<path d="M1679 2997 c-44 -30 -79 -83 -79 -121 0 -70 161 -1784 171 -1813 22
-69 106 -113 186 -98 49 9 109 69 118 117 4 21 -27 408 -74 924 -90 987 -84
949 -160 992 -52 29 -118 29 -162 -1z"/>
</g>
</svg>
