<svg width="90" height="91" viewBox="0 0 90 91" fill="none" xmlns="http://www.w3.org/2000/svg">
<path d="M18 0C27.1543 0 31.7314 9.828 25.3029 15.561C18.8229 21.2485 7.71429 17.199 7.71429 9.1C7.71429 6.68653 8.79796 4.37191 10.7269 2.66533C12.6558 0.958747 15.2721 0 18 0ZM10.2857 22.75H25.7143C28.4422 22.75 31.0584 23.7087 32.9874 25.4153C34.9163 27.1219 36 29.4365 36 31.85V56.875H28.2857V91H7.71429V56.875H0V31.85C0 29.4365 1.08367 27.1219 3.01262 25.4153C4.94156 23.7087 7.55777 22.75 10.2857 22.75ZM90 27.3H59.1429V36.4H90M90 40.95H74.5714V50.05H90M90 0H59.1429V9.1H90M90 13.65H74.5714V22.75H90M90 54.6H59.1429V63.7H90M90 81.9H59.1429V91H90M90 68.25H74.5714V77.35H90" fill="#435739"/>
</svg>
