<?xml version="1.0" standalone="no"?>
<!DOCTYPE svg PUBLIC "-//W3C//DTD SVG 20010904//EN"
 "http://www.w3.org/TR/2001/REC-SVG-20010904/DTD/svg10.dtd">
<svg version="1.0" xmlns="http://www.w3.org/2000/svg"
 width="30.000000pt" height="30.000000pt" viewBox="0 0 30.000000 30.000000"
 preserveAspectRatio="xMidYMid meet">

<g transform="translate(0.000000,30.000000) scale(0.100000,-0.100000)"
fill="#000000" stroke="none">
<path d="M90 248 c-61 -41 -76 -97 -40 -156 43 -69 135 -80 184 -21 47 56 46
106 -2 160 -38 42 -94 49 -142 17z m42 -65 c17 -15 19 -15 38 2 26 24 39 11
15 -15 -17 -19 -17 -21 0 -40 24 -26 11 -39 -15 -15 -19 17 -21 17 -40 0 -26
-24 -39 -11 -15 15 17 19 17 21 2 38 -30 33 -18 45 15 15z"/>
</g>
</svg>
